<svg viewBox="0 0 17.1996 19.1993" fill="none" xmlns="http://www.w3.org/2000/svg">
<path id="Union" d="M11.5344 18.0001C11.8656 18.0001 12.1348 18.2686 12.135 18.5997C12.135 18.9311 11.8658 19.1993 11.5344 19.1993H5.64769C5.31658 19.199 5.04808 18.9309 5.04808 18.5997C5.04833 18.2687 5.31673 18.0004 5.64769 18.0001H11.5344ZM8.6516 0.000111533C12.6442 0.0318617 15.8046 3.4046 15.8049 7.43468V8.09972C15.8049 11.3724 16.4764 13.2169 17.0227 14.1788C17.2579 14.5936 17.2588 15.1049 17.0237 15.5196L17.0227 15.5187C16.7871 15.9355 16.3499 16.1969 15.8694 16.1993H1.33324C0.848449 16.1991 0.410465 15.9338 0.176013 15.5187C-0.0579081 15.1038 -0.0594326 14.594 0.176013 14.1788C0.72232 13.2169 1.39476 11.3727 1.39476 8.09972V7.34972C1.39481 7.34497 1.39563 7.3398 1.39574 7.33507C1.39724 5.38826 2.15935 3.51991 3.51586 2.14269C4.87671 0.761129 6.72537 -0.0106737 8.64965 0.000111533H8.6516Z" fill="var(--fill-0, #949BB0)"/>
</svg>
