<svg viewBox="0 0 20 20" fill="none" xmlns="http://www.w3.org/2000/svg">
<path id="Subtract" d="M10 0C15.5228 0 20 4.47715 20 10C20 15.5228 15.5228 20 10 20C4.47715 20 0 15.5228 0 10C0 4.47715 4.47715 0 10 0ZM14.5312 5.46973C14.2384 5.17683 13.7636 5.17683 13.4707 5.46973L10.001 8.93945L6.53125 5.46973C6.23836 5.17683 5.7636 5.17683 5.4707 5.46973C5.17781 5.76262 5.17781 6.23738 5.4707 6.53027L8.94043 10L5.4707 13.4697C5.17781 13.7626 5.17781 14.2374 5.4707 14.5303C5.7636 14.8232 6.23836 14.8232 6.53125 14.5303L10.001 11.0605L13.4707 14.5303C13.7636 14.8232 14.2384 14.8232 14.5312 14.5303C14.8241 14.2374 14.8241 13.7626 14.5312 13.4697L11.0615 10L14.5312 6.53027C14.8241 6.23738 14.8241 5.76262 14.5312 5.46973Z" fill="var(--fill-0, #949BB0)"/>
</svg>
