<svg viewBox="0 0 13.4999 13.4999" fill="none" xmlns="http://www.w3.org/2000/svg">
<path id="Normal" d="M12.2197 0.21967C12.5126 -0.0732235 12.9874 -0.0732235 13.2802 0.21967C13.5731 0.512569 13.5731 0.987344 13.2802 1.28022L7.81051 6.74996L13.2802 12.2197C13.5731 12.5126 13.5731 12.9874 13.2802 13.2802C12.9874 13.5731 12.5126 13.5731 12.2197 13.2802L6.74996 7.81051L1.28022 13.2802C0.987344 13.5731 0.512569 13.5731 0.21967 13.2802C-0.0732235 12.9874 -0.0732235 12.5126 0.21967 12.2197L5.68941 6.74996L0.21967 1.28022C-0.0732235 0.987326 -0.0732235 0.512564 0.21967 0.21967C0.512564 -0.0732235 0.987326 -0.0732235 1.28022 0.21967L6.74996 5.68941L12.2197 0.21967Z" fill="var(--fill-0, #212633)"/>
</svg>
