<svg viewBox="0 0 17.4996 13.5" fill="none" xmlns="http://www.w3.org/2000/svg">
<path id="Normal" d="M4.24981 0C4.44961 5.71794e-05 4.64129 0.0798853 4.78204 0.22168L8.28206 3.75098C8.57348 4.04496 8.57181 4.51986 8.27816 4.81152C7.98414 5.10308 7.50929 5.10142 7.2176 4.80762L4.99981 2.57031V12.75C4.99981 13.1641 4.66393 13.4999 4.24981 13.5C3.83559 13.5 3.49981 13.1642 3.49981 12.75V2.57031L1.28202 4.80762C0.990371 5.10149 0.515523 5.10301 0.221466 4.81152C-0.0723289 4.51983 -0.0739998 4.04498 0.21756 3.75098L3.71758 0.22168L3.83184 0.126953C3.95447 0.0447325 4.09996 0 4.24981 0ZM13.2499 0C13.664 0.000115942 13.9999 0.335857 13.9999 0.75V10.9297L16.2177 8.69238C16.5093 8.39858 16.9842 8.39692 17.2782 8.68848C17.5719 8.98014 17.5735 9.45504 17.2821 9.74902L13.7821 13.2783C13.6413 13.4201 13.4497 13.4999 13.2499 13.5C13.1 13.5 12.9545 13.4553 12.8319 13.373L12.7176 13.2783L9.21761 9.74902C8.92605 9.45502 8.92772 8.98017 9.22152 8.68848C9.51558 8.39699 9.99042 8.39851 10.2821 8.69238L12.4999 10.9297V0.75C12.4999 0.335786 12.8356 0 13.2499 0Z" fill="var(--fill-0, #212633)"/>
</svg>
