<svg viewBox="0 0 19.959 17.499" fill="none" xmlns="http://www.w3.org/2000/svg">
<path id="Normal" d="M11.8555 0C12.9324 0 13.8057 0.87324 13.8057 1.9502V2.46289H19.209C19.6232 2.46289 19.959 2.79868 19.959 3.21289C19.959 3.6271 19.6232 3.96289 19.209 3.96289H17.501V15.5498C17.5008 16.6265 16.6285 17.4988 15.5518 17.499H4.41504C3.33819 17.499 2.46502 16.6266 2.46484 15.5498V3.96289H0.75C0.335786 3.96289 0 3.6271 0 3.21289C0 2.79868 0.335786 2.46289 0.75 2.46289H6.15234V1.9502C6.15234 0.87324 7.02558 0 8.10254 0H11.8555ZM3.96484 15.5498C3.96502 15.7982 4.16662 15.999 4.41504 15.999H15.5518C15.8 15.9989 16.0008 15.7981 16.001 15.5498V3.96289H3.96484V15.5498ZM6.29297 5.53711C6.70718 5.53711 7.04297 5.8729 7.04297 6.28711V13.6719C7.04271 14.0859 6.70702 14.4219 6.29297 14.4219C5.87892 14.4219 5.54323 14.0859 5.54297 13.6719V6.28711C5.54297 5.8729 5.87876 5.53711 6.29297 5.53711ZM9.98438 5.53711C10.3986 5.53711 10.7344 5.8729 10.7344 6.28711V13.6719C10.7341 14.0859 10.3984 14.4219 9.98438 14.4219C9.57032 14.4219 9.23464 14.0859 9.23438 13.6719V6.28711C9.23438 5.8729 9.57016 5.53711 9.98438 5.53711ZM13.6758 5.53711C14.09 5.53711 14.4258 5.8729 14.4258 6.28711V13.6719C14.4255 14.0859 14.0898 14.4219 13.6758 14.4219C13.2617 14.4219 12.926 14.0859 12.9258 13.6719V6.28711C12.9258 5.8729 13.2616 5.53711 13.6758 5.53711ZM8.10254 1.5C7.85401 1.5 7.65234 1.70167 7.65234 1.9502V2.46289H12.3057V1.9502C12.3057 1.70167 12.104 1.5 11.8555 1.5H8.10254Z" fill="var(--fill-0, #212633)"/>
</svg>
