<svg viewBox="0 0 17.5 13.5" fill="none" xmlns="http://www.w3.org/2000/svg">
<path id="Normal" d="M16.75 0C16.795 0 16.839 0.00412569 16.8818 0.0117188C16.8874 0.0127014 16.8929 0.0135411 16.8984 0.0146484C16.9118 0.0173339 16.9244 0.0229803 16.9375 0.0263672C16.9707 0.034946 17.0041 0.0434357 17.0361 0.0566406C17.0653 0.0686796 17.092 0.0851163 17.1191 0.100586C17.1763 0.133098 17.2316 0.171005 17.2803 0.219727C17.3287 0.268118 17.366 0.323203 17.3984 0.379883C17.414 0.40703 17.4303 0.433752 17.4424 0.462891C17.4631 0.512887 17.4779 0.564594 17.4873 0.617188C17.495 0.660348 17.5 0.704619 17.5 0.75V10.6162C17.5 12.2086 16.2086 13.5 14.6162 13.5H2.88379C1.29137 13.5 0 12.2086 0 10.6162V0.75C0 0.704678 0.00401579 0.660294 0.0117188 0.617188C0.0208181 0.56636 0.0350498 0.516207 0.0546875 0.467773L0.0585938 0.458008C0.0701767 0.430614 0.0859551 0.405499 0.100586 0.379883C0.133028 0.323046 0.171215 0.268238 0.219727 0.219727C0.268238 0.171215 0.323046 0.133028 0.379883 0.100586C0.405499 0.0859551 0.430614 0.0701767 0.458008 0.0585938L0.467773 0.0546875C0.498223 0.0423414 0.529999 0.0345479 0.561523 0.0263672C0.574625 0.0229643 0.587216 0.0173504 0.600586 0.0146484C0.606094 0.0135343 0.61166 0.0127082 0.617188 0.0117188C0.660294 0.00401579 0.704678 0 0.75 0H16.75ZM9.28027 9.28027C8.98738 9.57317 8.51262 9.57317 8.21973 9.28027L1.5 2.56055V10.6162C1.5 11.3802 2.1198 12 2.88379 12H14.6162C15.3802 12 16 11.3802 16 10.6162V2.56055L9.28027 9.28027ZM8.75 7.68945L14.9395 1.5H2.56055L8.75 7.68945Z" fill="var(--fill-0, #212633)"/>
</svg>
