<svg viewBox="0 0 19.5002 17.4999" fill="none" xmlns="http://www.w3.org/2000/svg">
<path id="Normal" d="M4.58122 1.08557C6.26106 0.170942 8.19601 -0.179254 10.0939 0.0865412C11.9843 0.351388 13.738 1.21356 15.093 2.54553L18.0002 5.24768V1.63635C18.0004 1.22241 18.3362 0.886456 18.7502 0.886347C19.1643 0.886347 19.5 1.22234 19.5002 1.63635V6.97034C19.4999 7.38429 19.1642 7.72034 18.7502 7.72034H13.3488C12.935 7.72008 12.5991 7.38413 12.5988 6.97034C12.5988 6.55629 12.9348 6.2206 13.3488 6.22034H16.842L14.0715 3.64416C14.066 3.63904 14.0602 3.63382 14.0549 3.62854C12.9289 2.51594 11.4661 1.79331 9.88592 1.57189C8.30567 1.35059 6.69551 1.64266 5.299 2.40295C3.90267 3.1633 2.79533 4.34999 2.14372 5.78284C1.49227 7.21554 1.33065 8.81832 1.6818 10.3493C2.03307 11.8802 2.87866 13.2596 4.09392 14.277C5.30936 15.2945 6.82867 15.8949 8.42205 15.987C10.0154 16.079 11.5951 15.6567 12.923 14.7858C14.2508 13.9148 15.2546 12.6423 15.7844 11.1618C15.9239 10.7718 16.3534 10.5691 16.7434 10.7086C17.1333 10.8482 17.336 11.2776 17.1965 11.6676C16.5559 13.4575 15.3445 14.9923 13.7463 16.0407C12.1481 17.0889 10.2486 17.5955 8.33514 17.485C6.4217 17.3744 4.59503 16.6521 3.13102 15.4264C1.66689 14.2006 0.643786 12.5363 0.218906 10.6842C-0.205826 8.83212 -0.00892128 6.89339 0.778478 5.16174C1.56594 3.43027 2.90146 2.00027 4.58122 1.08557Z" fill="var(--fill-0, #212633)"/>
</svg>
