<svg viewBox="0 0 24 24" fill="none" xmlns="http://www.w3.org/2000/svg">
<path d="M11 3C15.4183 3 19 6.58172 19 11C19 12.8463 18.3736 14.5462 17.3211 15.8995L20.7803 19.3588C21.0732 19.6517 21.0732 20.1266 20.7803 20.4195C20.4874 20.7124 20.0126 20.7124 19.7197 20.4195L16.2604 16.9602C14.9168 18.0166 13.0327 18.6 11 18.6C6.58172 18.6 3 15.0183 3 11C3 6.58172 6.58172 3 11 3ZM11 4.5C7.41015 4.5 4.5 7.41015 4.5 11C4.5 14.5898 7.41015 17.5 11 17.5C14.5898 17.5 17.5 14.5898 17.5 11C17.5 7.41015 14.5898 4.5 11 4.5Z" fill="var(--fill-0, #212633)"/>
</svg>
