<svg viewBox="0 0 19.5004 19.5004" fill="none" xmlns="http://www.w3.org/2000/svg">
<path id="Normal" d="M8.31367 6.29122C9.0681 6.34534 9.8023 6.56112 10.466 6.92403C11.1298 7.28707 11.7083 7.78951 12.1613 8.39571C12.409 8.72749 12.3407 9.19668 12.009 9.44454C11.6772 9.69243 11.2071 9.62496 10.9592 9.29317C10.6349 8.8593 10.2212 8.50017 9.74629 8.24043C9.27131 7.98071 8.74603 7.82602 8.20625 7.78731C7.66649 7.74864 7.12445 7.82651 6.61738 8.01582C6.17353 8.18158 5.76485 8.42912 5.41328 8.74532L5.2668 8.88497L2.55977 11.593C1.87198 12.3058 1.49164 13.2618 1.5002 14.2531C1.50885 15.2443 1.90671 16.193 2.60664 16.8938C3.30663 17.5942 4.25393 17.9915 5.24336 18.0002C6.22852 18.0087 7.17787 17.6311 7.88887 16.9484L9.43672 15.3996C9.72936 15.1067 10.2042 15.1062 10.4973 15.3986C10.7902 15.6913 10.7908 16.1661 10.4982 16.4592L8.95039 18.009L8.94063 18.0178C7.94572 18.9796 6.61307 19.5122 5.22969 19.5002C3.84636 19.4881 2.52309 18.9323 1.54512 17.9533C0.567222 16.9743 0.0122114 15.6499 0.000196296 14.2658C-0.011726 12.8818 0.519853 11.5478 1.48067 10.552L1.48945 10.5432H1.49043L4.20528 7.82442C4.73987 7.28918 5.38348 6.8752 6.09199 6.61055C6.80078 6.34589 7.55908 6.23715 8.31367 6.29122ZM14.2707 0.000197662C15.654 0.0122833 16.9773 0.568189 17.9553 1.54707C18.9332 2.52605 19.4881 3.85048 19.5002 5.23457C19.5122 6.6187 18.9806 7.95259 18.0197 8.94844L18.0109 8.95723H18.01L15.2951 11.676L15.2941 11.675C14.7595 12.2103 14.117 12.6252 13.4084 12.8898C12.6996 13.1545 11.9414 13.2633 11.1867 13.2092C10.4323 13.155 9.6981 12.9393 9.03438 12.5764C8.37058 12.2133 7.79207 11.7109 7.33906 11.1047C7.09164 10.7729 7.15982 10.3037 7.49141 10.0559C7.82314 9.808 8.29323 9.87563 8.54121 10.2072C8.86548 10.6411 9.27919 11.0002 9.7541 11.26C10.2291 11.5197 10.7544 11.6743 11.2941 11.7131C11.8339 11.7518 12.3759 11.6739 12.883 11.4846C13.3902 11.2952 13.8508 10.9987 14.2336 10.6154L16.9397 7.90645C17.6275 7.19357 18.0088 6.23864 18.0002 5.24727C17.9915 4.25604 17.5938 3.30736 16.8938 2.60664C16.1937 1.90624 15.2464 1.5088 14.257 1.5002C13.271 1.49178 12.3198 1.86914 11.6086 2.55293L11.6096 2.55391L10.0529 4.10274C9.75933 4.39491 9.28457 4.3934 8.99239 4.09981C8.70055 3.80618 8.70183 3.33133 8.99531 3.03926L10.552 1.49043L10.5598 1.48262L10.7502 1.30782C11.7214 0.456816 12.9738 -0.0110346 14.2707 0.000197662Z" fill="var(--fill-0, #212633)"/>
</svg>
