<svg viewBox="0 0 22.4444 19.6125" fill="none" xmlns="http://www.w3.org/2000/svg">
<path id="Normal" d="M8.86381 1.33501C9.93192 -0.445026 12.5124 -0.444978 13.5806 1.33501L22.0484 15.4474C23.148 17.2803 21.8274 19.6124 19.69 19.6125H2.75443C0.617032 19.6123 -0.703626 17.2803 0.396026 15.4474L8.86381 1.33501ZM12.2945 2.1065C11.8089 1.29753 10.6354 1.29748 10.1499 2.1065L1.68314 16.2189C1.18328 17.052 1.78295 18.1123 2.75443 18.1125H19.69C20.6615 18.1124 21.2611 17.052 20.7613 16.2189L12.2945 2.1065ZM11.2222 13.8624C11.7744 13.8624 12.2221 14.3102 12.2222 14.8624C12.2222 15.4147 11.7745 15.8625 11.2222 15.8625C10.67 15.8624 10.2222 15.4147 10.2222 14.8624C10.2223 14.3103 10.67 13.8625 11.2222 13.8624ZM11.2222 5.86238C11.6364 5.86238 11.9721 6.19826 11.9722 6.61239V12.1124C11.9722 12.5266 11.6364 12.8624 11.2222 12.8624C10.808 12.8624 10.4722 12.5266 10.4722 12.1124V6.61239C10.4723 6.19829 10.8081 5.86243 11.2222 5.86238Z" fill="var(--fill-0, #212633)"/>
</svg>
