<svg xmlns="http://www.w3.org/2000/svg" width="15" height="15" viewBox="0 0 15 15" fill="none">
<path d="M8.0221 0.890172C9.27675 -0.29675 11.297 -0.296698 12.5517 0.890172C13.8261 2.09577 13.8261 4.06527 12.5517 5.27087L6.12757 11.3492C5.37975 12.0563 4.18081 12.0565 3.43307 11.3492C2.66562 10.6231 2.66569 9.4304 3.43307 8.7043L9.07109 3.37064C9.32176 3.13372 9.71688 3.14465 9.95407 3.39506C10.1913 3.6458 10.1804 4.04162 9.92965 4.27884L4.29244 9.6125C4.04624 9.84545 4.04623 10.208 4.29244 10.441C4.55835 10.6923 5.00319 10.6924 5.26901 10.441L11.6932 4.36348C12.4462 3.65109 12.446 2.51085 11.6932 1.79838C10.9204 1.06732 9.6534 1.06732 8.88066 1.79838L2.19446 8.12406C0.934746 9.31597 0.934782 11.2331 2.19446 12.425C3.47406 13.6356 5.56249 13.6356 6.84209 12.425L13.5283 6.09932C13.779 5.86217 14.1748 5.87311 14.4121 6.12373C14.6493 6.37444 14.6383 6.77029 14.3877 7.00752L7.70146 13.3332C5.93996 14.9997 3.09746 14.9996 1.3359 13.3332C-0.445301 11.6481 -0.4453 8.90097 1.3359 7.21586L8.0221 0.890172Z" fill="currentColor"/>
</svg>
