<svg viewBox="0 0 15.5002 15.4999" fill="none" xmlns="http://www.w3.org/2000/svg">
<path id="Normal" d="M10.4015 0.545679C11.1285 -0.181534 12.3068 -0.181926 13.0343 0.544702L14.9543 2.4617C15.6818 3.18869 15.6822 4.36793 14.9552 5.09549L5.89466 14.16C5.63529 14.4194 5.30507 14.5973 4.94544 14.6697L0.898549 15.4852C0.652421 15.5347 0.397371 15.4576 0.219835 15.2801C0.0423446 15.1025 -0.034841 14.8475 0.0147562 14.6014L0.832142 10.5594C0.904673 10.2005 1.08117 9.87013 1.33996 9.61113L10.4015 0.545679ZM2.40148 10.6717C2.35121 10.7221 2.31597 10.7865 2.30187 10.8562L1.70812 13.7908L4.64954 13.199C4.71928 13.1849 4.78376 13.1507 4.83411 13.1004L11.4455 6.48319L9.01577 4.0535L2.40148 10.6717ZM11.9748 1.60623C11.8332 1.46482 11.6035 1.4647 11.4621 1.60623L10.0753 2.99197L12.506 5.42264L13.8937 4.03494C14.0352 3.89343 14.0352 3.66469 13.8937 3.52322L11.9748 1.60623Z" fill="var(--fill-0, #212633)"/>
</svg>
