<svg viewBox="0 0 17.5 17.5" fill="none" xmlns="http://www.w3.org/2000/svg">
<path id="Normal" d="M8.75 0C13.5825 0 17.5 3.91751 17.5 8.75C17.5 13.5825 13.5825 17.5 8.75 17.5C3.91751 17.5 0 13.5825 0 8.75C0 3.91751 3.91751 0 8.75 0ZM8.75 1.5C4.74594 1.5 1.5 4.74594 1.5 8.75C1.5 12.7541 4.74594 16 8.75 16C12.7541 16 16 12.7541 16 8.75C16 4.74594 12.7541 1.5 8.75 1.5ZM8.75 4C9.16421 4 9.5 4.33579 9.5 4.75V8.98535L13.1279 11.1025C13.4856 11.3113 13.6061 11.7702 13.3975 12.1279C13.1887 12.4856 12.7298 12.6061 12.3721 12.3975L8.37207 10.0645C8.14178 9.93009 8.00012 9.6836 8 9.41699V4.75C8 4.33579 8.33579 4 8.75 4Z" fill="var(--fill-0, #212633)"/>
</svg>
