<svg viewBox="0 0 15.4998 14.5" fill="none" xmlns="http://www.w3.org/2000/svg">
<path id="Vector (Stroke)" d="M11.25 0C11.4499 0 11.6414 0.0798345 11.7822 0.22168L15.2822 3.75098C15.5738 4.04498 15.5721 4.51983 15.2783 4.81152C14.9843 5.10312 14.5095 5.10153 14.2178 4.80762L12 2.57031V13.75C12 14.1642 11.6642 14.5 11.25 14.5H0.75C0.335786 14.5 0 14.1642 0 13.75C0 13.3358 0.335786 13 0.75 13H10.5V2.57031L8.28223 4.80762C7.99054 5.10153 7.51573 5.10312 7.22168 4.81152C6.92789 4.51983 6.92621 4.04498 7.21777 3.75098L10.7178 0.22168L10.832 0.126953C10.9547 0.0446691 11.1001 0 11.25 0Z" fill="var(--fill-0, #212633)"/>
</svg>
