<svg viewBox="0 0 15.5 17.5" fill="none" xmlns="http://www.w3.org/2000/svg">
<path id="Normal" d="M8.92188 0C9.65111 8.00507e-05 10.3506 0.29001 10.8662 0.805664L14.6943 4.63379C15.21 5.14944 15.4999 5.84889 15.5 6.57812V14.75C15.5 16.2688 14.2688 17.5 12.75 17.5H2.75C1.23122 17.5 0 16.2688 0 14.75V2.75C0 1.23122 1.23122 0 2.75 0H8.92188ZM2.75 1.5C2.05964 1.5 1.5 2.05964 1.5 2.75V14.75C1.5 15.4404 2.05964 16 2.75 16H12.75C13.4404 16 14 15.4404 14 14.75V7H10.25C9.2835 7 8.5 6.2165 8.5 5.25V1.5H2.75ZM10 5.25C10 5.38807 10.1119 5.5 10.25 5.5H13.4395L10 2.06055V5.25Z" fill="var(--fill-0, #212633)"/>
</svg>
