<svg viewBox="0 0 17 15.5" fill="none" xmlns="http://www.w3.org/2000/svg">
<g id="Group">
<path id="Vector 1253" d="M6 0.623047H2L0.5 1.62305V5.75H16L16.5 4.25L15.5 3.12305H8.5L8 2.25L7.5 1.12305L6 0.623047Z" fill="var(--fill-0, #B0B2FF)"/>
<path id="Vector" d="M16.5 13.3927V5.75013L0.5 5.75V13.3927C0.5 14.2856 1.20857 15 2.07909 15H14.9209C15.7982 15 16.5 14.2788 16.5 13.3927Z" fill="var(--fill-0, white)"/>
<path id="Vector_2" d="M7.97701 2.10729C7.97701 2.46009 8.26301 2.74609 8.61581 2.74609H14.9209C15.7914 2.74609 16.5 3.46731 16.5 4.35339V13.3927C16.5 14.2788 15.7982 15 14.9209 15H2.07909C1.20857 15 0.5 14.2856 0.5 13.3927V2.10729C0.5 1.22122 1.20857 0.5 2.07909 0.5H6.39793C7.26845 0.5 7.97701 1.21435 7.97701 2.10729Z" stroke="var(--stroke-0, #5D63ED)" stroke-linejoin="round"/>
<path id="Vector_3" d="M0.507812 5.75H16.5011" stroke="var(--stroke-0, #5D63ED)" stroke-linejoin="round"/>
</g>
</svg>
