<svg viewBox="0 0 20.5001 19.5" fill="none" xmlns="http://www.w3.org/2000/svg">
<path id="Icon" d="M10.2501 8.06323V4.65039M10.2501 11.4761H10.2606M4.97229 15.3765V17.6538C4.97229 18.1734 4.97229 18.4332 5.08758 18.5666C5.18786 18.6827 5.3399 18.7502 5.50063 18.75C5.68545 18.7498 5.90505 18.5875 6.34425 18.2629L8.86223 16.4021C9.37661 16.022 9.6338 15.8319 9.92019 15.6967C10.1743 15.5768 10.4447 15.4892 10.7242 15.4362C11.0393 15.3765 11.3686 15.3765 12.0274 15.3765H14.6834C16.4569 15.3765 17.3436 15.3765 18.021 15.0576C18.6169 14.7772 19.1013 14.3297 19.4049 13.7792C19.7501 13.1535 19.7501 12.3343 19.7501 10.696V5.43047C19.7501 3.79215 19.7501 2.97299 19.4049 2.34724C19.1013 1.79681 18.6169 1.3493 18.021 1.06884C17.3436 0.75 16.4569 0.75 14.6834 0.75H5.81673C4.04323 0.75 3.15648 0.75 2.4791 1.06884C1.88325 1.3493 1.39881 1.79681 1.09521 2.34724C0.750065 2.97299 0.750065 3.79215 0.750065 5.43047V11.4761C0.750065 12.3829 0.750065 12.8363 0.857967 13.2083C1.15078 14.2178 2.00435 15.0063 3.09714 15.2768C3.49983 15.3765 3.99065 15.3765 4.97229 15.3765Z" stroke="url(#paint0_linear_0_425)" stroke-width="1.5" stroke-linecap="round" stroke-linejoin="round"/>
<defs>
<linearGradient id="paint0_linear_0_425" x1="-7.32493" y1="-1.75" x2="22.6192" y2="18.3028" gradientUnits="userSpaceOnUse">
<stop stop-color="#F05BB2"/>
<stop offset="0.35" stop-color="#B769F6"/>
<stop offset="0.75" stop-color="#6C71FF"/>
<stop offset="1" stop-color="#6CB1FF"/>
</linearGradient>
</defs>
</svg>
