<svg viewBox="0 0 24.8275 20.0043" fill="none" xmlns="http://www.w3.org/2000/svg">
<path d="M11.8562 16.7006L7.92168 11.9272L13.6346 4.98591H10.5169C9.12047 4.98591 8.16319 5.40646 7.3113 6.39063L4.30335 10.0455V0H1.28661C0.575244 0 0 0.56796 0 1.27466V20.0043H3.01674C3.72811 20.0043 4.30335 19.4364 4.30335 18.734V13.7524L6.74923 16.7136L8.83065 19.2413C9.2522 19.7615 9.80549 20.0043 10.372 20.0043H14.5831L11.8606 16.7006H11.8562Z" fill="#BFC5D4"/>
<path d="M19.5972 20C17.2743 20 15.6671 18.4175 15.6671 16.1197V1.27032C15.6671 0.56796 16.2468 0 16.9537 0H19.9749V15.3263C19.9749 15.9549 20.493 16.4665 21.1297 16.4665H24.2036V18.7297C24.2036 19.432 23.6239 20 22.9169 20H19.5972Z" fill="#BFC5D4"/>
<path d="M4.71547 9.52999V9.52132C4.71547 9.52132 4.71547 9.52132 4.71547 9.52566V9.52999ZM24.8226 3.87641L24.5592 4.15388C24.5592 4.15388 23.7424 4.97331 21.4195 4.97331H10.4416C8.70704 4.97331 7.89028 5.67133 7.27113 6.42139L6.92423 6.84194C6.92423 6.84194 6.90666 6.85928 6.89788 6.86795L4.71986 9.51699C5.51466 8.92735 6.59928 8.57183 7.70586 8.57183H21.4195C23.0837 8.57183 24.6821 8.08625 24.8139 6.85928C24.8314 6.75956 24.827 6.69453 24.827 6.69453V3.87207L24.8226 3.87641Z" fill="#D3D8E4"/>
</svg>
