<svg xmlns="http://www.w3.org/2000/svg" viewBox="0 0 36 28" fill="none">
<path d="M11.2647 16.691L14.8764 12.3684H10.6482C9.08523 12.3684 7.54716 12.7135 6.43875 13.6701L6.12117 14.0515V0H1.82452C0.821968 0 0 0.799135 0 1.77989V28H4.29042C5.2992 28 6.11494 27.2009 6.11494 26.2201V19.2458L9.58962 23.3989L12.5475 26.9345C13.1453 27.661 13.9299 28 14.7331 28H20.7235L16.8503 23.3808L11.2647 16.6971V16.691ZM28.3952 21.4495V12.3684H22.2678V22.5635C22.2678 25.7782 24.5469 27.9939 27.8597 27.9939H32.5736C33.5824 27.9939 34.4043 27.1948 34.4043 26.2141V23.0478H30.033C29.13 23.0478 28.3952 22.3334 28.3952 21.4495ZM35.4256 9.16584V5.21254L35.0457 5.6C35.0333 5.61211 33.8813 6.75027 30.5809 6.75027H28.3952V0H24.0986C23.0898 0 22.2678 0.799135 22.2678 1.77384V6.75632H14.976C12.5163 6.75632 11.3581 7.73103 10.4676 8.78443L6.88087 13.0768C6.88087 13.0768 8.57462 11.5209 11.0592 11.5209H30.5747C32.7106 11.5209 34.1739 11.1152 34.9274 10.3101C35.4691 9.73492 35.4193 9.17189 35.4193 9.17189L35.4256 9.16584Z" fill="#5E6A71"/>
</svg>
