<svg viewBox="0 0 94.2974 18.2759" fill="none" xmlns="http://www.w3.org/2000/svg">
<g id="&#234;&#183;&#184;&#235;&#157;&#188;&#235;&#141;&#176;&#236;&#157;&#180;&#236;&#133;&#152;">
<path id="Union" d="M19.0641 6.09188C19.064 6.98903 18.3301 7.7159 17.4244 7.7159H3.89512V9.54402H19.0641V11.3712C19.0641 12.2684 18.3301 12.9962 17.4244 12.9962H3.89512V16.6514C3.89496 17.3242 3.34385 17.8692 2.66465 17.8692H0.409766V12.5899C0.409766 10.9077 1.78673 9.54402 3.48496 9.54402H3.0748C1.60317 9.54397 0.40995 8.36213 0.409766 6.90438C0.409766 5.44647 1.60306 4.26381 3.0748 4.26375H19.0641V6.09188ZM24.3941 14.4171H36.4898V16.2452C36.4898 17.1424 35.7549 17.8692 34.8492 17.8692H23.984C22.2859 17.869 20.9098 16.5054 20.9098 14.8233V5.88875C20.9098 4.99155 21.6437 4.26375 22.5494 4.26375H24.3941V14.4171ZM52.274 4.26375C53.972 4.264 55.3482 5.62853 55.3482 7.31063V14.8233C55.3482 16.5054 53.972 17.869 52.274 17.8692H41.2037C39.5056 17.8691 38.1285 16.5055 38.1285 14.8233V7.31063C38.1285 5.62843 39.5056 4.26383 41.2037 4.26375H52.274ZM64.1217 12.8155L66.4654 6.11043C66.8516 5.00575 67.9025 4.26396 69.0826 4.26375C70.2629 4.26377 71.3135 5.00561 71.6998 6.11043L74.0445 12.8155L76.2926 5.42C76.5012 4.73389 77.1395 4.26394 77.8629 4.26375H80.2555L76.7037 15.9473C76.3568 17.0883 75.2953 17.8692 74.0924 17.8692C72.9309 17.869 71.8974 17.14 71.5172 16.0528L69.0826 9.09188L66.6539 16.0391C66.2709 17.1345 65.2294 17.8692 64.0592 17.8692C62.8614 17.8692 61.802 17.1002 61.441 15.9688L58.3629 6.32234C57.9589 5.15493 56.8586 4.30714 55.5533 4.2657V4.26375H61.5221L64.1217 12.8155ZM87.8219 0.361407C88.8643 0.0825127 89.8902 0.85986 89.8902 1.92879V14.42H93.5797V16.2462C93.5796 17.1427 92.8457 17.8692 91.94 17.8692H82.3053V16.043C82.3053 15.1466 83.0394 14.4201 83.9449 14.42H86.4049V4.27254H82.3053V3.08016C82.3055 2.34693 82.8022 1.70516 83.5172 1.51375L87.8219 0.361407ZM41.6139 14.4171H51.8639V7.7159H41.6139V14.4171Z" fill="url(#paint0_linear_0_68)"/>
</g>
<defs>
<linearGradient id="paint0_linear_0_68" x1="0.409766" y1="9.08717" x2="93.5797" y2="9.08717" gradientUnits="userSpaceOnUse">
<stop stop-color="#F05BB2"/>
<stop offset="0.35" stop-color="#B769F6"/>
<stop offset="0.75" stop-color="#6C71FF"/>
<stop offset="1" stop-color="#6CB1FF"/>
</linearGradient>
</defs>
</svg>
