<svg viewBox="0 0 20 20" fill="none" xmlns="http://www.w3.org/2000/svg">
<path id="Subtract" d="M10 0C15.5228 0 20 4.47715 20 10C20 15.5228 15.5228 20 10 20C4.47715 20 0 15.5228 0 10C0 4.47715 4.47715 0 10 0ZM10 13C9.44772 13 9 13.4477 9 14C9 14.5523 9.44772 15 10 15C10.5523 15 11 14.5523 11 14C11 13.4477 10.5523 13 10 13ZM10.2129 4.96484C8.79239 4.96484 7.58328 5.57279 7.16016 6.8291C6.98557 7.34764 7.44895 7.80859 7.99609 7.80859C8.52318 7.80849 8.91612 7.32859 9.28418 6.95117C9.5209 6.70846 9.85426 6.58183 10.1992 6.57812C10.8623 6.58496 11.3955 7.0293 11.3887 7.71289C11.3955 8.3418 10.9375 8.76562 10.3496 9.14844C9.69691 9.55638 9.27321 9.96866 9.12402 10.9775C9.05086 11.4726 9.47123 11.8827 9.97168 11.8828C10.4682 11.8828 10.83 11.4629 11.0195 11.0039C11.1883 10.595 11.5039 10.3118 11.9902 10.0234C12.8857 9.4834 13.4668 8.77246 13.4668 7.64453C13.4668 5.95605 12.1201 4.96484 10.2129 4.96484Z" fill="var(--fill-0, #949BB0)"/>
</svg>
