<svg viewBox="0 0 24 24" fill="none" xmlns="http://www.w3.org/2000/svg">
<g id="Mask group">
<mask id="mask0_0_492" style="mask-type:alpha" maskUnits="userSpaceOnUse" x="0" y="0" width="24" height="24">
<circle id="Ellipse 4092" cx="12" cy="12" r="12" fill="var(--fill-0, #949BB0)"/>
</mask>
<g mask="url(#mask0_0_492)">
<path id="Union" d="M16.0537 15.2275C18.9975 15.2275 21.4647 17.3508 22.1514 20.2305C19.9325 23.6322 16.2068 25.8621 11.998 25.8623C7.7891 25.8623 4.06274 23.6257 1.84375 20.2305C2.53042 17.3508 4.99762 15.2275 7.94141 15.2275H16.0537ZM11.998 4.61426C14.2918 4.6145 16.1511 6.47343 16.1514 8.7666C16.1514 11.06 14.2919 12.9197 11.998 12.9199C9.70394 12.9199 7.84375 11.0601 7.84375 8.7666C7.844 6.47328 9.7041 4.61426 11.998 4.61426Z" fill="var(--fill-0, #949BB0)"/>
</g>
</g>
</svg>
