<svg viewBox="0 0 22.4444 19.6123" fill="none" xmlns="http://www.w3.org/2000/svg">
<path id="Subtract" d="M8.86379 1.33496C9.93189 -0.445033 12.5124 -0.444942 13.5806 1.33496L22.0484 15.4473C23.148 17.2802 21.8274 19.6122 19.69 19.6123H2.75441C0.617063 19.6121 -0.703624 17.2801 0.396015 15.4473L8.86379 1.33496ZM11.2222 13.8623C10.6701 13.8624 10.2223 14.3102 10.2222 14.8623C10.2222 15.4145 10.67 15.8622 11.2222 15.8623C11.7745 15.8623 12.2222 15.4146 12.2222 14.8623C12.2221 14.3101 11.7744 13.8623 11.2222 13.8623ZM11.2222 5.86231C10.8081 5.86239 10.4723 6.19825 10.4722 6.61231V12.1123C10.4722 12.5265 10.808 12.8622 11.2222 12.8623C11.6364 12.8623 11.9722 12.5265 11.9722 12.1123V6.61231C11.9721 6.1982 11.6363 5.86231 11.2222 5.86231Z" fill="var(--fill-0, #949BB0)"/>
</svg>
