<svg viewBox="0 0 21.5 21.5" fill="none" xmlns="http://www.w3.org/2000/svg">
<path id="Normal" d="M10.75 0C16.6871 0 21.5 4.81294 21.5 10.75C21.5 16.6871 16.6871 21.5 10.75 21.5C4.81294 21.5 0 16.6871 0 10.75C0 4.81294 4.81294 0 10.75 0ZM10.75 1.5C5.64137 1.5 1.5 5.64137 1.5 10.75C1.5 15.8586 5.64137 20 10.75 20C15.8586 20 20 15.8586 20 10.75C20 5.64137 15.8586 1.5 10.75 1.5ZM10.75 13.75C11.3023 13.75 11.75 14.1977 11.75 14.75C11.75 15.3023 11.3023 15.75 10.75 15.75C10.1977 15.75 9.75 15.3023 9.75 14.75C9.75 14.1977 10.1977 13.75 10.75 13.75ZM10.75 5.75C11.1642 5.75 11.5 6.08579 11.5 6.5V12C11.5 12.4142 11.1642 12.75 10.75 12.75C10.3358 12.75 10 12.4142 10 12V6.5C10 6.08579 10.3358 5.75 10.75 5.75Z" fill="var(--fill-0, #212633)"/>
</svg>
