<svg viewBox="0 0 21.5 21.4999" fill="none" xmlns="http://www.w3.org/2000/svg">
<path id="Normal" d="M0.219726 0.21967C0.51262 -0.0732234 0.987381 -0.0732234 1.28027 0.21967L21.2803 20.2197C21.5732 20.5126 21.5732 20.9874 21.2803 21.2802C20.9874 21.5731 20.5126 21.5731 20.2197 21.2802L16.0664 17.1269C14.495 18.1671 12.656 18.7414 10.7627 18.7724H10.75C7.26859 18.7724 4.58397 16.7848 2.81641 14.8994C1.9258 13.9494 1.24497 13.0019 0.78711 12.2929C0.557938 11.9381 0.38304 11.6411 0.264648 11.4306C0.205508 11.3255 0.1609 11.2412 0.129882 11.1826C0.114518 11.1535 0.102129 11.1305 0.0937496 11.1142L0.0800777 11.0869C0.079935 11.0866 0.0792115 11.0854 0.75 10.75L0.0791011 11.0849C-0.0296392 10.8671 -0.0261539 10.61 0.0888668 10.3955C1.13536 8.44522 2.54096 6.71312 4.22852 5.28901L0.219726 1.28022C-0.0731558 0.987336 -0.0731329 0.512567 0.219726 0.21967ZM5.29395 6.35444C3.8106 7.5862 2.56022 9.07522 1.60547 10.7519C1.70992 10.9353 1.85761 11.1849 2.04785 11.4795C2.47067 12.1341 3.09728 13.0049 3.91114 13.873C5.551 15.6222 7.86313 17.2681 10.7412 17.2714C12.2439 17.2463 13.7057 16.8179 14.9795 16.04L12.6338 13.6943C12.4644 13.8092 12.2855 13.9104 12.0977 13.9941C11.6711 14.1841 11.2101 14.2866 10.7432 14.2949C10.2764 14.3031 9.81279 14.2168 9.37989 14.042C8.94692 13.8671 8.55383 13.6065 8.22364 13.2763C7.89346 12.9461 7.6329 12.553 7.45802 12.1201C7.28318 11.6872 7.19688 11.2236 7.20509 10.7568C7.21332 10.2899 7.31583 9.82883 7.50587 9.4023C7.58964 9.21435 7.68971 9.03461 7.8047 8.86519L5.29395 6.35444ZM10.75 2.72749C14.2315 2.72749 16.9161 4.71514 18.6836 6.60054C19.5742 7.55052 20.2551 8.49805 20.7129 9.20699C20.9421 9.56186 21.117 9.85883 21.2354 10.0693C21.2945 10.1744 21.3391 10.2587 21.3701 10.3173C21.3855 10.3464 21.3979 10.3694 21.4063 10.3857L21.4199 10.413C21.4192 10.4138 21.3959 10.427 20.75 10.75L21.4209 10.415C21.5295 10.6325 21.5258 10.8891 21.4112 11.1035C20.8347 12.1818 20.1476 13.1972 19.3604 14.1328C19.0937 14.4497 18.6207 14.4902 18.3037 14.2236C17.9868 13.9569 17.9463 13.4839 18.2129 13.167C18.8466 12.4139 19.4083 11.6036 19.8936 10.748C19.7891 10.5647 19.6423 10.3148 19.4522 10.0205C19.0294 9.36579 18.4027 8.49503 17.5889 7.62691C15.9474 5.87594 13.6322 4.22749 10.75 4.22749H10.7481C10.1636 4.22613 9.58081 4.29252 9.01173 4.42573C8.60848 4.52003 8.20477 4.26939 8.11036 3.86616C8.01611 3.46293 8.26671 3.05919 8.66993 2.96479C9.35171 2.80521 10.0498 2.72598 10.75 2.72749ZM8.87599 10.0136C8.76801 10.2561 8.70977 10.5178 8.70509 10.7832C8.70042 11.0486 8.74921 11.3124 8.84864 11.5586C8.94809 11.8047 9.09645 12.028 9.28419 12.2158C9.47193 12.4035 9.69524 12.5519 9.94142 12.6513C10.1876 12.7508 10.4513 12.7996 10.7168 12.7949C10.9822 12.7902 11.2439 12.732 11.4863 12.624C11.5037 12.6163 11.52 12.6058 11.5371 12.5976L8.90138 9.96187C8.8931 9.97907 8.88376 9.99617 8.87599 10.0136Z" fill="var(--fill-0, #212633)"/>
</svg>
