<svg viewBox="0 0 17.4999 17.4999" fill="none" xmlns="http://www.w3.org/2000/svg">
<path id="Normal" d="M7.75 0C12.0302 0 15.5 3.46979 15.5 7.75C15.5 9.62002 14.8372 11.335 13.7344 12.6738L17.2803 16.2197C17.5732 16.5126 17.5732 16.9874 17.2803 17.2803C16.9874 17.5732 16.5126 17.5732 16.2197 17.2803L12.6738 13.7344C11.335 14.8372 9.62002 15.5 7.75 15.5C3.46979 15.5 0 12.0302 0 7.75C0 3.46979 3.46979 0 7.75 0ZM7.75 1.5C4.29822 1.5 1.5 4.29822 1.5 7.75C1.5 11.2018 4.29822 14 7.75 14C11.2018 14 14 11.2018 14 7.75C14 4.29822 11.2018 1.5 7.75 1.5Z" fill="var(--fill-0, #212633)"/>
</svg>
