<svg viewBox="0 0 13.5 15.5" fill="none" xmlns="http://www.w3.org/2000/svg">
<path id="Normal" d="M12.75 14C13.1642 14 13.5 14.3358 13.5 14.75C13.5 15.1642 13.1642 15.5 12.75 15.5H0.75C0.335786 15.5 0 15.1642 0 14.75C0 14.3358 0.335786 14 0.75 14H12.75ZM6.75 0C7.16421 1.81059e-08 7.5 0.335787 7.5 0.75V10.0879L11.2539 6.77637C11.5645 6.50247 12.0385 6.5322 12.3125 6.84277C12.5865 7.15339 12.5567 7.62735 12.2461 7.90137L7.24609 12.3125C6.96262 12.5625 6.53738 12.5625 6.25391 12.3125L1.25391 7.90137C0.943299 7.62735 0.913496 7.15339 1.1875 6.84277C1.46149 6.5322 1.93548 6.50247 2.24609 6.77637L6 10.0879V0.75C6 0.335787 6.33579 5.92165e-08 6.75 0Z" fill="var(--fill-0, #212633)"/>
</svg>
