<svg viewBox="0 0 21.5 21.5" fill="none" xmlns="http://www.w3.org/2000/svg">
<path id="Normal" d="M10.75 0C16.6871 0 21.5 4.81294 21.5 10.75C21.5 16.6871 16.6871 21.5 10.75 21.5C4.81294 21.5 0 16.6871 0 10.75C0 4.81294 4.81294 0 10.75 0ZM10.75 1.5C5.64137 1.5 1.5 5.64137 1.5 10.75C1.5 15.8586 5.64137 20 10.75 20C15.8586 20 20 15.8586 20 10.75C20 5.64137 15.8586 1.5 10.75 1.5ZM10.75 13.75C11.3023 13.75 11.75 14.1977 11.75 14.75C11.75 15.3023 11.3023 15.75 10.75 15.75C10.1977 15.75 9.75 15.3023 9.75 14.75C9.75 14.1977 10.1977 13.75 10.75 13.75ZM10.9629 5.71484C12.8701 5.71484 14.2168 6.70605 14.2168 8.39453C14.2168 9.52246 13.6357 10.2334 12.7402 10.7734C12.2539 11.0618 11.9383 11.345 11.7695 11.7539C11.58 12.2129 11.2182 12.6328 10.7217 12.6328C10.2212 12.6327 9.80086 12.2226 9.87402 11.7275C10.0232 10.7187 10.4469 10.3064 11.0996 9.89844C11.6875 9.51562 12.1455 9.0918 12.1387 8.46289C12.1455 7.7793 11.6123 7.33496 10.9492 7.32812C10.6043 7.33183 10.2709 7.45847 10.0342 7.70117C9.66612 8.07859 9.27318 8.55849 8.74609 8.55859C8.19895 8.55859 7.73557 8.09764 7.91016 7.5791C8.33328 6.32279 9.54239 5.71484 10.9629 5.71484Z" fill="var(--fill-0, #212633)"/>
</svg>
