<svg viewBox="0 0 17.5029 17.501" fill="none" xmlns="http://www.w3.org/2000/svg">
<path id="Normal" d="M12.7539 0C13.1681 0 13.5039 0.335786 13.5039 0.75V1.59961H14.3535C16.093 1.59982 17.5029 3.01043 17.5029 4.75V14.3516C17.5028 16.091 16.0929 17.5008 14.3535 17.501H3.15039C1.41079 17.501 0.000148427 16.0911 0 14.3516V4.75C0 3.0103 1.41069 1.59961 3.15039 1.59961H4.00391V0.75C4.00391 0.335786 4.33969 0 4.75391 0C5.16812 0 5.50391 0.335786 5.50391 0.75V1.59961H12.0039V0.75C12.0039 0.335786 12.3397 0 12.7539 0ZM1.5 14.3516C1.50015 15.2627 2.23921 16.001 3.15039 16.001H14.3535C15.2645 16.0008 16.0028 15.2626 16.0029 14.3516V7.90039H1.5V14.3516ZM5.75391 14.002H3.75391V12.502H5.75391V14.002ZM9.75391 14.002H7.75391V12.502H9.75391V14.002ZM13.7539 14.002H11.7539V12.502H13.7539V14.002ZM5.75391 11.001H3.75391V9.50098H5.75391V11.001ZM9.75391 11.001H7.75391V9.50098H9.75391V11.001ZM13.7539 11.001H11.7539V9.50098H13.7539V11.001ZM3.15039 3.09961C2.23912 3.09961 1.5 3.83873 1.5 4.75V6.39941H16.0029V4.75C16.0029 3.83886 15.2646 3.09982 14.3535 3.09961H13.5039V3.9502C13.5039 4.36441 13.1681 4.7002 12.7539 4.7002C12.3397 4.7002 12.0039 4.36441 12.0039 3.9502V3.09961H5.50391V3.9502C5.50391 4.36441 5.16812 4.7002 4.75391 4.7002C4.33969 4.7002 4.00391 4.36441 4.00391 3.9502V3.09961H3.15039Z" fill="var(--fill-0, #212633)"/>
</svg>
