<svg viewBox="0 0 17.5 15.5" fill="none" xmlns="http://www.w3.org/2000/svg">
<path id="Normal" d="M6.2002 0C6.8475 0 7.45273 0.321288 7.81543 0.857422L9.36914 3.1543H15.1504C15.7758 3.1544 16.3744 3.40532 16.8145 3.84961C17.2542 4.29371 17.5 4.89465 17.5 5.51953V13.1348C17.5 13.7597 17.2543 14.3606 16.8145 14.8047C16.3744 15.249 15.7758 15.4999 15.1504 15.5H2.34961C1.72416 15.4999 1.1256 15.249 0.685547 14.8047C0.245734 14.3606 3.9508e-05 13.7597 0 13.1348V2.36523C3.93831e-05 1.7403 0.245734 1.1394 0.685547 0.695312C1.1256 0.251027 1.72416 0.000104488 2.34961 0H6.2002ZM1.5 13.1348C1.50004 13.3665 1.59178 13.5873 1.75195 13.749C1.91181 13.9103 2.12674 13.9999 2.34961 14H15.1504C15.3733 13.9999 15.5882 13.9103 15.748 13.749C15.9082 13.5873 16 13.3665 16 13.1348V5.51953C16 5.28771 15.9083 5.06605 15.748 4.9043C15.5882 4.74318 15.3731 4.6544 15.1504 4.6543H1.5V13.1348ZM2.34961 1.5C2.12674 1.5001 1.91181 1.58969 1.75195 1.75098C1.59178 1.91269 1.50004 2.13347 1.5 2.36523V3.1543H7.55859L6.57324 1.69824C6.48954 1.5745 6.34958 1.5 6.2002 1.5H2.34961Z" fill="var(--fill-0, #212633)"/>
</svg>
