<svg viewBox="0 0 16 16" fill="none" xmlns="http://www.w3.org/2000/svg">
<path id="Union" d="M14.2222 0C15.2041 0 16 0.795938 16 1.77778V14.2222C16 15.1428 15.3002 15.8996 14.4036 15.9905L14.2222 16H1.77778L1.59635 15.9905C0.759419 15.9056 0.0943996 15.2406 0.00954861 14.4036L0 14.2222V1.77778C0 0.795938 0.795938 7.15839e-09 1.77778 0H14.2222ZM1.33333 14.2222C1.33333 14.4677 1.53232 14.6667 1.77778 14.6667H4V12.2222H1.33333V14.2222ZM5.33333 14.6667H10.6667V8.66667H5.33333V14.6667ZM12 12.2222V14.6667H14.2222C14.4677 14.6667 14.6667 14.4677 14.6667 14.2222V12.2222H12ZM12 10.8889H14.6667V8.66667H12V10.8889ZM1.33333 10.8889H4V8.66667H1.33333V10.8889ZM1.33333 7.33333H4V5.11111H1.33333V7.33333ZM5.33333 7.33333H10.6667V1.33333H5.33333V7.33333ZM12 7.33333H14.6667V5.11111H12V7.33333ZM1.77778 1.33333C1.53232 1.33333 1.33333 1.53232 1.33333 1.77778V3.77778H4V1.33333H1.77778ZM12 3.77778H14.6667V1.77778C14.6667 1.53232 14.4677 1.33333 14.2222 1.33333H12V3.77778Z" fill="var(--fill-0, #212633)"/>
</svg>
