<svg viewBox="0 0 17.4996 17.4996" fill="none" xmlns="http://www.w3.org/2000/svg">
<path id="Icon (Stroke)" d="M9.62652 1.06821C11.1321 -0.3561 13.5564 -0.356038 15.0621 1.06821C16.5913 2.51493 16.5913 4.87832 15.0621 6.32504L7.35308 13.619C6.4557 14.4676 5.01697 14.4677 4.11968 13.619C3.19874 12.7477 3.19883 11.3165 4.11968 10.4452L10.8853 4.04477C11.1861 3.76047 11.6603 3.77358 11.9449 4.07407C12.2295 4.37496 12.2165 4.84995 11.9156 5.13461L5.15093 11.535C4.85549 11.8145 4.85547 12.2496 5.15093 12.5291C5.47002 12.8308 6.00383 12.8309 6.32281 12.5291L14.0318 5.23618C14.9354 4.38131 14.9352 3.01301 14.0318 2.15805C13.1045 1.28079 11.5841 1.28079 10.6568 2.15805L2.63336 9.74887C1.12169 11.1792 1.12174 13.4797 2.63336 14.91C4.16887 16.3627 6.67499 16.3627 8.2105 14.91L16.2339 7.31918C16.5348 7.0346 17.0098 7.04774 17.2945 7.34848C17.5791 7.64933 17.566 8.12435 17.2652 8.40903L9.24175 15.9998C7.12795 17.9996 3.71695 17.9995 1.60308 15.9998C-0.534361 13.9777 -0.53436 10.6812 1.60308 8.65903L9.62652 1.06821Z" fill="var(--fill-0, #212633)"/>
</svg>
