<svg viewBox="0 0 21.5 19.5" fill="none" xmlns="http://www.w3.org/2000/svg">
<path id="Normal" d="M10.75 10.0762C14.2111 10.0762 16.8862 10.8637 18.7158 12.2266C20.5644 13.6036 21.4999 15.535 21.5 17.6621C21.5 18.6306 20.7526 19.5 19.7305 19.5H1.76953C0.747384 19.5 0 18.6306 0 17.6621C9.1139e-05 15.535 0.935609 13.6036 2.78418 12.2266C4.61382 10.8637 7.28893 10.0762 10.75 10.0762ZM10.75 11.5762C7.49726 11.5762 5.17246 12.3186 3.68066 13.4297C2.20799 14.5267 1.50009 16.0139 1.5 17.6621C1.5 17.8948 1.66549 17.9999 1.76953 18H19.7305C19.8345 18 20 17.8948 20 17.6621C19.9999 16.0139 19.292 14.5267 17.8193 13.4297C16.3275 12.3186 14.0027 11.5762 10.75 11.5762ZM10.75 0C13.206 0 15.2498 1.91879 15.25 4.34961C15.25 6.78061 13.2061 8.7002 10.75 8.7002C8.29387 8.7002 6.25 6.78061 6.25 4.34961C6.25022 1.91879 8.294 0 10.75 0ZM10.75 1.5C9.06414 1.5 7.75022 2.80433 7.75 4.34961C7.75 5.89506 9.064 7.2002 10.75 7.2002C12.436 7.2002 13.75 5.89506 13.75 4.34961C13.7498 2.80433 12.4359 1.5 10.75 1.5Z" fill="var(--fill-0, #212633)"/>
</svg>
