<svg viewBox="0 0 21.5007 15.5" fill="none" xmlns="http://www.w3.org/2000/svg">
<path id="Normal" d="M10.7503 0C14.2206 0 16.9027 1.90797 18.6742 3.72656C19.5656 4.64176 20.2468 5.55475 20.7054 6.23828C20.935 6.58038 21.1101 6.86713 21.2289 7.07031C21.2882 7.17176 21.3344 7.25289 21.3656 7.30957C21.3811 7.33784 21.3933 7.36112 21.4017 7.37695C21.4058 7.38456 21.4091 7.39098 21.4115 7.39551L21.4154 7.40332L20.7503 7.75L21.4154 8.09668L21.4115 8.10449C21.4091 8.10902 21.4058 8.11544 21.4017 8.12305C21.3933 8.13888 21.3811 8.16216 21.3656 8.19043C21.3344 8.24711 21.2882 8.32823 21.2289 8.42969C21.1101 8.63287 20.935 8.91962 20.7054 9.26172C20.2468 9.94525 19.5656 10.8582 18.6742 11.7734C16.9027 13.592 14.2206 15.5 10.7503 15.5C7.28012 15.4999 4.59781 13.592 2.82646 11.7734C1.93505 10.8582 1.25384 9.94523 0.795198 9.26172C0.565649 8.91961 0.390504 8.63285 0.271759 8.42969C0.21246 8.32822 0.166191 8.24709 0.13504 8.19043C0.119491 8.16214 0.107353 8.13886 0.0989069 8.12305C0.0948368 8.11542 0.091516 8.109 0.0891413 8.10449L0.085235 8.09668L0.750276 7.75L0.085235 7.40332L0.0891413 7.39551C0.091516 7.391 0.0948368 7.38458 0.0989069 7.37695C0.107353 7.36114 0.119491 7.33786 0.13504 7.30957C0.166191 7.25291 0.21246 7.17178 0.271759 7.07031C0.390504 6.86715 0.56565 6.58039 0.795198 6.23828C1.25384 5.55477 1.93505 4.64177 2.82646 3.72656C4.59781 1.90798 7.28012 0.000127358 10.7503 0ZM10.7503 1.5C7.85727 1.50013 5.53927 3.09221 3.90165 4.77344C3.08873 5.60806 2.4623 6.44533 2.04032 7.07422C1.85871 7.34488 1.71677 7.57648 1.61356 7.75C1.71677 7.92352 1.85871 8.15512 2.04032 8.42578C2.4623 9.05467 3.08873 9.89194 3.90165 10.7266C5.53927 12.4078 7.85727 13.9999 10.7503 14C13.6434 14 15.9613 12.4078 17.599 10.7266C18.4119 9.89196 19.0383 9.05469 19.4603 8.42578C19.6418 8.15535 19.7829 7.92349 19.8861 7.75C19.7829 7.57651 19.6418 7.34465 19.4603 7.07422C19.0383 6.44531 18.4119 5.60805 17.599 4.77344C15.9613 3.09221 13.6434 1.5 10.7503 1.5ZM10.7503 4.375C12.6435 4.375 14.2279 5.85928 14.2279 7.75C14.2279 9.64072 12.6435 11.125 10.7503 11.125C8.85729 11.1248 7.27276 9.64061 7.27276 7.75C7.27276 5.8594 8.85729 4.37518 10.7503 4.375ZM10.7503 5.875C9.63118 5.87518 8.77276 6.74133 8.77276 7.75C8.77276 8.75867 9.63118 9.62482 10.7503 9.625C11.8696 9.625 12.7279 8.75877 12.7279 7.75C12.7279 6.74123 11.8696 5.875 10.7503 5.875ZM0.750276 7.75L0.0842584 8.0957C-0.0280861 7.87915 -0.0280862 7.62085 0.0842584 7.4043L0.750276 7.75ZM21.4164 7.4043C21.5288 7.62092 21.5288 7.87908 21.4164 8.0957L20.7503 7.75L21.4164 7.4043Z" fill="var(--fill-0, #212633)"/>
</svg>
