<svg viewBox="0 0 17.0002 15.9941" fill="none" xmlns="http://www.w3.org/2000/svg">
<g id="Icon">
<path id="Vector" d="M8.47662 15.5C8.83647 15.5 9.1885 15.4245 9.46229 15.2811L16.1116 11.8022C16.6436 11.523 17.0555 11.2611 16.5001 10.9969V3.99676C16.2185 3.86092 8.85211 7.49308 8.50009 7.50062C8.14024 7.50062 0.781882 4.3684 0.500263 4.4967V10.9969C-0.0551519 11.2611 0.356618 11.5154 0.888565 11.8022L7.5379 15.2811C7.80388 15.4245 8.16371 15.4925 8.52355 15.5" fill="var(--fill-0, white)"/>
<g id="Vector_2">
<path d="M8.47662 8.5C8.83646 8.5 9.1885 8.42453 9.46229 8.28115L16.1116 4.80217C16.6436 4.52295 16.6279 4.0777 16.0725 3.81357L9.49359 0.68929C9.21197 0.553451 8.85211 0.493079 8.50009 0.500625C8.14024 0.500625 7.78039 0.560998 7.49877 0.68929L0.927669 3.81357C0.372254 4.0777 0.356618 4.5154 0.888565 4.80217L7.5379 8.28115C7.80388 8.42453 8.16371 8.49245 8.52355 8.5" fill="var(--fill-0, #B0B2FF)"/>
<path d="M8.47662 8.5C8.83646 8.5 9.1885 8.42453 9.46229 8.28115L16.1116 4.80217C16.6436 4.52295 16.6279 4.0777 16.0725 3.81357L9.49359 0.68929C9.21197 0.553451 8.85211 0.493079 8.50009 0.500625C8.14024 0.500625 7.78039 0.560998 7.49877 0.68929L0.927669 3.81357C0.372254 4.0777 0.356618 4.5154 0.888565 4.80217L7.5379 8.28115C7.80388 8.42453 8.16371 8.49245 8.52355 8.5" stroke="var(--stroke-0, #5D63ED)"/>
</g>
<path id="Vector_3" d="M16.5001 7.99707L9.46634 11.7731C9.20033 11.9199 8.84044 11.9893 8.48054 11.9971H8.51965C8.15975 11.9971 7.80766 11.9199 7.53383 11.7731L0.500097 7.99707" stroke="var(--stroke-0, #5D63ED)" stroke-linecap="round"/>
<path id="Vector_4" d="M16.5001 11.4941L9.46634 15.2702C9.20033 15.4169 8.84044 15.4864 8.48054 15.4941H8.51965C8.15975 15.4941 7.80766 15.4169 7.53383 15.2702L0.500097 11.4941" stroke="var(--stroke-0, #5D63ED)" stroke-linecap="round"/>
</g>
</svg>
