<svg viewBox="0 0 187.858 36.5517" fill="none" xmlns="http://www.w3.org/2000/svg">
<g id="&#234;&#183;&#184;&#235;&#157;&#188;&#235;&#141;&#176;&#236;&#157;&#180;&#236;&#133;&#152;">
<path id="Union" d="M37.9801 12.1837C37.98 13.978 36.5168 15.4327 34.7125 15.4327H7.75938V19.088H37.9801V22.7433C37.9799 24.5375 36.5168 25.9923 34.7125 25.9923H7.75938V33.3019C7.75938 34.6476 6.66239 35.7393 5.30918 35.7394H0.816992V25.1798C0.816992 21.8153 3.55978 19.088 6.94297 19.088H6.12559C3.19359 19.0879 0.816992 16.7235 0.816992 13.8077C0.817183 10.8921 3.19371 8.52855 6.12559 8.52843H37.9801V12.1837ZM48.5982 28.8351H72.6939V32.4903C72.6939 34.2847 71.2307 35.7394 69.4264 35.7394H47.7809C44.3979 35.7391 41.656 33.0118 41.6559 29.6476V11.7775C41.6559 9.9831 43.1182 8.5285 44.9225 8.52843H48.5982V28.8351ZM104.138 8.52843C107.521 8.52843 110.264 11.2558 110.264 14.6202V29.6476C110.264 33.0119 107.521 35.7394 104.138 35.7394H82.0855C78.7026 35.7392 75.9598 33.0118 75.9596 29.6476V14.6202C75.9596 11.2559 78.7025 8.52858 82.0855 8.52843H104.138ZM127.742 25.631L132.413 12.2198C133.182 10.0103 135.275 8.52843 137.627 8.52843C139.978 8.5285 142.071 10.0103 142.84 12.2198L147.51 25.631L151.99 10.84C152.406 9.46758 153.677 8.52843 155.119 8.52843H159.883L152.807 31.8956C152.116 34.1773 150.003 35.7393 147.607 35.7394C145.293 35.7393 143.232 34.2805 142.474 32.1056L137.627 18.1837L132.788 32.0792C132.025 34.2699 129.949 35.7394 127.618 35.7394C125.232 35.7393 123.121 34.2011 122.402 31.9386L116.269 12.6437C115.464 10.309 113.273 8.61423 110.672 8.53136V8.52843H122.563L127.742 25.631ZM174.959 0.722765C177.035 0.165268 179.078 1.71982 179.078 3.85753V28.839H186.428V32.4923C186.428 34.2855 184.966 35.7393 183.162 35.7394H163.967V32.086C163.968 30.2929 165.431 28.839 167.235 28.839H172.135V8.54601H163.967V6.16124C163.967 4.69426 164.957 3.40923 166.382 3.02648L174.959 0.722765ZM82.9029 28.8351H103.322V15.4327H82.9029V28.8351Z" fill="url(#paint0_linear_0_549)"/>
</g>
<defs>
<linearGradient id="paint0_linear_0_549" x1="0.816992" y1="18.1738" x2="186.428" y2="18.1738" gradientUnits="userSpaceOnUse">
<stop stop-color="#F05BB2"/>
<stop offset="0.35" stop-color="#B769F6"/>
<stop offset="0.75" stop-color="#6C71FF"/>
<stop offset="1" stop-color="#6CB1FF"/>
</linearGradient>
</defs>
</svg>
