<svg viewBox="0 0 49.4611 40.0087" fill="none" xmlns="http://www.w3.org/2000/svg">
<g id="KT">
<path id="Vector" d="M23.6197 33.4013L15.7815 23.8543L27.1627 9.97182H20.9516C18.1697 9.97182 16.2626 10.8129 14.5655 12.7813L8.57308 20.091V0H2.56318C1.14599 0 0 1.13592 0 2.54932V40.0087H6.0099C7.42709 40.0087 8.57308 38.8727 8.57308 37.468V27.5049L13.4457 33.4273L17.5923 38.4825C18.4321 39.5231 19.5344 40.0087 20.6629 40.0087H29.0522L23.6285 33.4013H23.6197Z" fill="var(--fill-0, black)"/>
<path id="Vector_2" d="M39.0413 40C34.4136 40 31.2118 36.835 31.2118 32.2393V2.54065C31.2118 1.13592 32.3666 0 33.775 0H39.7937V30.6525C39.7937 31.9098 40.8259 32.933 42.0944 32.933H48.218V37.4594C48.218 38.8641 47.0633 40 45.6549 40H39.0413Z" fill="var(--fill-0, black)"/>
<path id="Vector_3" d="M9.39409 19.06V19.0426C9.39409 19.0426 9.39409 19.0426 9.39409 19.0513V19.06ZM49.4514 7.75281L48.9265 8.30776C48.9265 8.30776 47.2993 9.94661 42.6716 9.94661H20.8015C17.3461 9.94661 15.7189 11.3427 14.4855 12.8428L13.7944 13.6839C13.7944 13.6839 13.7594 13.7186 13.7419 13.7359L9.40284 19.034C10.9862 17.8547 13.147 17.1437 15.3515 17.1437H42.6716C45.9871 17.1437 49.1714 16.1725 49.4339 13.7186C49.4689 13.5191 49.4601 13.3891 49.4601 13.3891V7.74414L49.4514 7.75281Z" fill="var(--fill-0, #ED1C24)"/>
</g>
</svg>
