<svg viewBox="0 0 21.5 18.5" fill="none" xmlns="http://www.w3.org/2000/svg">
<path id="Icon" d="M10.75 6.79445C10.75 4.67869 10.75 3.62081 11.186 2.8127C11.5695 2.10187 12.1814 1.52394 12.934 1.16175C13.7897 0.750001 14.9098 0.750001 17.15 0.750001H17.55C18.6701 0.750001 19.2302 0.750001 19.658 0.955877C20.0343 1.13697 20.3403 1.42593 20.532 1.78135C20.75 2.18541 20.75 2.71435 20.75 3.77222V11.8944C20.75 12.9523 20.75 13.4813 20.532 13.8853C20.3403 14.2407 20.0343 14.5297 19.658 14.7108C19.2302 14.9167 18.6701 14.9167 17.55 14.9167H16.1752C14.9229 14.9167 14.2968 14.9167 13.7284 15.0797C13.2252 15.224 12.7571 15.4606 12.3509 15.7759C11.892 16.1321 11.5447 16.6242 10.8501 17.6083L10.75 17.75L10.6499 17.6083C9.9553 16.6242 9.60798 16.1321 9.1491 15.7759C8.74286 15.4606 8.27477 15.224 7.77161 15.0797C7.20325 14.9167 6.57711 14.9167 5.32482 14.9167H3.95C2.8299 14.9167 2.26984 14.9167 1.84202 14.7108C1.4657 14.5297 1.15973 14.2407 0.967988 13.8853C0.750001 13.4813 0.750001 12.9523 0.750001 11.8944V3.77222C0.750001 2.71435 0.750001 2.18541 0.967988 1.78135C1.15973 1.42593 1.4657 1.13697 1.84202 0.955877C2.26984 0.750001 2.8299 0.750001 3.95 0.750001H4.35C6.59021 0.750001 7.71032 0.750001 8.56596 1.16175C9.31861 1.52394 9.93053 2.10187 10.314 2.8127C10.75 3.62081 10.75 4.67869 10.75 6.79445ZM10.75 17.75V6.79445" stroke="url(#paint0_linear_0_77)" stroke-width="1.5" stroke-linecap="round" stroke-linejoin="round"/>
<defs>
<linearGradient id="paint0_linear_0_77" x1="-7.75" y1="-1.61111" x2="21.5712" y2="20.2738" gradientUnits="userSpaceOnUse">
<stop stop-color="#F05BB2"/>
<stop offset="0.35" stop-color="#B769F6"/>
<stop offset="0.75" stop-color="#6C71FF"/>
<stop offset="1" stop-color="#6CB1FF"/>
</linearGradient>
</defs>
</svg>
